HIERARCHY
ROOT hip
{
	OFFSET 0.000000 0.000000 0.000000 
	CHANNELS 6 Xposition Yposition Zposition Xrotation Zrotation Yrotation
	JOINT abdomen
	{
		OFFSET 0.000000 3.402643 0.000000 
		CHANNELS 3 Xrotation Zrotation Yrotation
		JOINT chest
		{
			OFFSET 0.000000 8.438565 -0.680529 
			CHANNELS 3 Xrotation Zrotation Yrotation
			JOINT neck
			{
				OFFSET 0.000000 10.207942 -0.272212 
				CHANNELS 3 Xrotation Zrotation Yrotation
				JOINT head
				{
					OFFSET 0.000000 3.130431 0.000000 
					CHANNELS 3 Xrotation Zrotation Yrotation
					End Site
					{
						OFFSET 0.000000 3.130435 0.000000 
					}
				}
			}
			JOINT lCollar
			{
				OFFSET 3.470700 6.669187 -0.816635 
				CHANNELS 3 Yrotation Zrotation Xrotation
				JOINT lShldr
				{
					OFFSET 3.198488 0.000000 0.000000 
					CHANNELS 3 Zrotation Yrotation Xrotation
					JOINT lForeArm
					{
						OFFSET 10.139888 0.000000 0.000000 
						CHANNELS 3 Yrotation Zrotation Xrotation
						JOINT lHand
						{
							OFFSET 8.370511 0.000000 0.000000 
							CHANNELS 3 Zrotation Yrotation Xrotation
							End Site
							{
								OFFSET 4.083176 0.000000 0.000000 
							}
						}
					}
				}
			}
			JOINT rCollar
			{
				OFFSET -3.470700 6.669187 -0.816635 
				CHANNELS 3 Yrotation Zrotation Xrotation
				JOINT rShldr
				{
					OFFSET -3.198488 0.000000 0.000000 
					CHANNELS 3 Zrotation Yrotation Xrotation
					JOINT rForeArm
					{
						OFFSET -10.139888 0.000000 0.000000 
						CHANNELS 3 Yrotation Zrotation Xrotation
						JOINT rHand
						{
							OFFSET -8.370511 0.000000 0.000000 
							CHANNELS 3 Zrotation Yrotation Xrotation
							End Site
							{
								OFFSET -4.083176 0.000000 0.000000 
							}
						}
					}
				}
			}
		}
	}
	JOINT lThigh
	{
		OFFSET 5.308129 -1.633274 1.361059 
		CHANNELS 3 Xrotation Zrotation Yrotation
		JOINT lShin
		{
			OFFSET -2.041588 -20.007561 0.000000 
			CHANNELS 3 Xrotation Zrotation Yrotation
			JOINT lFoot
			{
				OFFSET 0.000000 -19.190928 -1.224953 
				CHANNELS 3 Xrotation Yrotation Zrotation
				End Site
				{
					OFFSET 0.000000 -2.449906 4.627600 
				}
			}
		}
	}
	JOINT rThigh
	{
		OFFSET -5.308129 -1.633274 1.361059 
		CHANNELS 3 Xrotation Zrotation Yrotation
		JOINT rShin
		{
			OFFSET 2.041588 -20.007561 0.000000 
			CHANNELS 3 Xrotation Zrotation Yrotation
			JOINT rFoot
			{
				OFFSET 0.000000 -19.190928 -1.224953 
				CHANNELS 3 Xrotation Yrotation Zrotation
				End Site
				{
					OFFSET 0.000000 -2.449906 4.627600 
				}
			}
		}
	}
}
MOTION
Frames: 9
Frame Time: 0.016667
0.202157 53.015881 -0.334538 -11.266259 -0.936544 -2.588343 23.765568 2.829307 -0.231889 4.119999 1.444755 -2.373526 -4.325782 3.639867 -0.422200 12.781318 -3.183877 4.420795 -17.679232 -12.433889 -0.659311 -64.801239 13.518954 -26.892090 -22.136059 -5.000000 29.508408 -12.913078 -10.135998 -2.768975 13.409181 16.015753 -0.849836 62.874008 -10.633732 -25.247160 21.636271 5.000000 23.243189 5.732178 -27.172668 5.429695 17.661173 10.945736 9.143568 10.448067 -4.449970 -0.957142 -15.705468 5.298222 -4.163363 21.925745 -8.376193 -2.452087 -2.350515 2.760757 -0.068728 -6.213023 -10.112960 7.059883 
0.376023 53.000000 -0.276532 -11.337473 -0.702497 -2.422172 23.745295 2.778405 -0.262925 4.121054 1.415476 -2.363763 -4.392940 3.387361 -0.393892 12.751079 -3.253788 4.000440 -17.533092 -12.463168 -0.660828 -64.976563 13.256682 -26.751184 -22.060669 -5.000000 29.382793 -13.025771 -10.123101 -2.675135 13.377639 15.869482 -0.839583 62.784336 -10.806074 -25.275290 21.657606 5.000000 23.400967 6.210679 -27.272175 5.094488 17.637945 10.612391 8.847682 10.637603 -4.578420 -1.001300 -16.034576 5.279023 -4.052603 22.192579 -8.778142 -2.729301 -2.528376 2.811163 -0.111010 -5.897677 -10.076316 7.162470 
0.565226 52.987350 -0.224634 -11.407650 -0.468399 -2.216882 23.745739 2.734896 -0.259313 4.121594 1.395952 -2.363525 -4.470413 3.123738 -0.373764 12.721334 -3.313776 3.599588 -17.396725 -12.492447 -0.662345 -65.119957 13.038921 -26.611343 -22.005640 -5.000000 29.308001 -13.103575 -10.150909 -2.595954 13.388005 15.730700 -0.841668 62.694942 -10.969881 -25.305565 21.702868 5.000000 23.481899 6.594600 -27.344995 4.819195 17.637783 10.290154 8.554608 10.777127 -4.698976 -1.040632 -16.318951 5.225418 -3.927784 22.393885 -9.206062 -3.046067 -2.524752 2.894653 -0.075228 -5.703996 -10.091872 7.305977 
0.769764 52.977917 -0.178843 -11.485654 -0.243993 -1.992211 23.766176 2.696887 -0.242609 4.122368 1.376435 -2.353766 -4.547405 2.861576 -0.343994 12.710773 -3.363806 3.227986 -17.270119 -12.521723 -0.663861 -65.254723 12.838201 -26.506992 -21.967157 -5.000000 29.246960 -13.156947 -10.210552 -2.531907 13.434607 15.584417 -0.834103 62.601585 -11.116254 -25.324854 21.764521 5.000000 23.508316 6.876405 -27.387577 4.587533 17.664984 9.971214 8.261843 10.907097 -4.863280 -1.112049 -16.569839 5.134155 -3.815350 22.542135 -9.596841 -3.363073 -2.388867 2.945159 -0.068538 -5.629280 -10.257252 7.474204 
0.974302 52.968494 -0.133052 -11.562200 -0.009761 -1.757814 23.806770 2.654827 -0.216409 4.122905 1.356911 -2.363534 -4.624544 2.609069 -0.315681 12.700951 -3.423514 2.846635 -17.141556 -12.563628 -0.656771 -65.387764 12.634064 -26.391010 -21.928707 -5.000000 29.202778 -13.198811 -10.271904 -2.480590 13.490995 15.438135 -0.826533 62.510323 -11.267202 -25.352184 21.832016 5.000000 23.523220 7.152761 -27.439589 4.367002 17.656027 9.626146 7.953323 11.007536 -4.949680 -1.146969 -16.806595 5.012109 -3.742626 22.668905 -10.026689 -3.681978 -2.224726 3.035205 -0.051566 -5.572892 -10.342530 7.665293 
1.204603 52.966991 -0.100884 -11.616396 0.205015 -1.416007 23.837208 2.662144 -0.181638 4.114702 1.308107 -2.314715 -4.692194 2.395184 -0.293206 12.671544 -3.502622 2.465287 -17.036333 -12.570521 -0.666387 -65.488190 12.485320 -26.315884 -21.910364 -5.000000 29.259472 -13.216564 -10.320115 -2.465433 13.537932 15.311355 -0.819968 62.415764 -11.356424 -25.297590 21.919003 5.000000 23.417919 7.287051 -27.506628 4.240147 17.665451 9.316504 7.604096 10.988857 -5.085492 -1.175406 -16.946251 4.860066 -3.634161 22.624647 -10.438706 -3.992568 -1.694529 3.105984 -0.029580 -5.773022 -10.630967 7.898489 
1.434905 52.965488 -0.068715 -11.668212 0.429612 -1.074189 23.887192 2.669386 -0.146279 4.106698 1.259309 -2.265896 -4.759847 2.171643 -0.269271 12.643183 -3.581619 2.083945 -16.938793 -12.580289 -0.666895 -65.597740 12.332596 -26.244490 -21.905785 -5.000000 29.310844 -13.233006 -10.361080 -2.461931 13.594507 15.174821 -0.812893 62.322838 -11.458647 -25.246641 22.005974 5.000000 23.312681 7.425950 -27.581629 4.102725 17.665182 8.994212 7.251763 10.989425 -5.222501 -1.215269 -17.069111 4.747940 -3.527191 22.541018 -10.826874 -4.317208 -1.150222 3.159605 0.014290 -5.971116 -10.889435 8.167332 
1.677685 52.971001 -0.042887 -11.705896 0.576133 -0.664029 23.937635 2.771064 -0.083985 4.098920 1.200747 -2.226842 -4.817832 1.957758 -0.246794 12.615538 -3.650717 1.712356 -16.851488 -12.629063 -0.669414 -65.646690 12.214387 -26.166801 -21.901670 -5.000000 29.392721 -13.231706 -10.429513 -2.496411 13.680828 15.067541 -0.804790 62.192356 -11.555580 -25.190241 22.106112 5.000000 23.143515 7.489872 -27.645115 4.020265 17.663155 8.749557 6.897484 10.938118 -5.329500 -1.238934 -17.167706 4.527844 -3.437397 22.349783 -11.170775 -4.614487 -0.350785 3.225201 0.045898 -6.249338 -11.222805 8.461152 
1.932946 52.983540 -0.023399 -11.750344 0.673824 -0.195299 23.998611 2.954759 0.011061 4.091745 1.132432 -2.178024 -4.866059 1.734216 -0.222856 12.577751 -3.719657 1.360264 -16.784191 -12.716843 -0.673943 -65.639709 12.120658 -26.110735 -21.902824 -5.000000 29.499472 -13.207427 -10.527732 -2.535008 13.796878 14.989508 -0.800753 62.034626 -11.664761 -25.127640 22.220797 5.000000 22.927116 7.504148 -27.716658 3.962697 17.675175 8.555313 6.514419 10.846714 -5.448710 -1.259181 -17.143148 4.322985 -3.331243 22.027605 -11.473598 -4.925972 0.693116 3.298270 0.113579 -6.614020 -11.612062 8.784623 
